<svg width="15" height="16" viewBox="0 0 15 16" fill="none" xmlns="http://www.w3.org/2000/svg">
<path d="M11.2 0H12.4V1.19995C12.7 1.19995 12.9 1.19995 13.2 1.19995C13.7 1.19995 14.2 1.50015 14.6 1.90015C14.8 2.20015 14.9 2.40005 15 2.80005V13.6001C15 13.6001 15 13.6 15 13.7C14.9 14.6 14.1 15.2 13.2 15.2C9.40001 15.2 5.60005 15.2 1.80005 15.2C0.800049 15.2 0 14.5 0 13.5V13.4001C0 10.0001 0 6.59995 0 3.19995C0 2.99995 0 2.89995 0 2.69995C0.2 1.89995 0.900049 1.30005 1.80005 1.30005H2.5V0.100098H3.70001V1.30005H11.5L11.2 0ZM1 5.5V13.1001C1 13.6001 1.20001 13.8 1.70001 13.8H13C13.5 13.8 13.7 13.6001 13.7 13.1001C13.7 10.6001 13.7 8.1001 13.7 5.6001V5.40015L1 5.5ZM13.7 4.30005C13.7 3.80005 13.7 3.30005 13.7 2.80005C13.7 2.60005 13.5 2.30005 13.3 2.30005C13 2.30005 12.7 2.30005 12.5 2.30005V3.40015H11.3V2.19995H3.5V3.40015H2.30005V2.19995C2.10005 2.19995 1.90001 2.19995 1.70001 2.19995C1.40001 2.19995 1.10004 2.39995 1.10004 2.69995V2.80005C1.10004 3.20005 1.10004 3.6 1.10004 4V4.1001L13.7 4.30005Z" fill="#8FC53C"/>
<path d="M3.20001 6.69995V7.90015H2V6.69995H3.20001Z" fill="#8FC53C"/>
<path d="M4.3999 6.69995H5.59991V7.90015H4.3999V6.69995Z" fill="#8FC53C"/>
<path d="M6.80005 7.90015V6.69995H8V7.90015H6.80005Z" fill="#8FC53C"/>
<path d="M9.1001 7.90015V6.69995H10.3001V7.90015H9.1001Z" fill="#8FC53C"/>
<path d="M11.5 6.69995H12.7V7.90015H11.5V6.69995Z" fill="#8FC53C"/>
<path d="M2.1001 9.1001H3.30011V10.3H2.1001V9.1001Z" fill="#8FC53C"/>
<path d="M4.3999 10.2V9H5.59991V10.2H4.3999Z" fill="#8FC53C"/>
<path d="M6.80005 10.2V9H8V10.2H6.80005Z" fill="#8FC53C"/>
<path d="M10.3001 10.3H9.1001V9.1001H10.3001V10.3Z" fill="#8FC53C"/>
<path d="M12.5999 9.1001V10.3H11.3999V9.1001H12.5999Z" fill="#8FC53C"/>
<path d="M3.20001 11.4001V12.6001H2V11.4001H3.20001Z" fill="#8FC53C"/>
<path d="M5.59991 12.6001H4.3999V11.4001H5.59991V12.6001Z" fill="#8FC53C"/>
<path d="M7.89996 12.6001H6.69995V11.4001H7.89996V12.6001Z" fill="#8FC53C"/>
<path d="M10.3001 11.4001V12.6001H9.1001V11.4001H10.3001Z" fill="#8FC53C"/>
</svg>
