<svg width="29" height="18" viewBox="0 0 29 18" fill="none" xmlns="http://www.w3.org/2000/svg">
<g clip-path="url(#clip0_164_1096)">
<path d="M28.2857 9.18381C28.1387 9.40422 28.0653 9.62463 27.8449 9.84504C25.8612 12.343 23.5102 14.4736 20.7918 16.0899C18.9551 17.1185 17.0449 17.8532 14.9142 18.0001C13.151 18.1471 11.5347 17.8532 9.91833 17.192C7.49384 16.2369 5.36323 14.7675 3.45302 13.0777C2.35098 12.0491 1.32241 10.9471 0.367307 9.77157C-3.98606e-05 9.25728 -3.98606e-05 8.88994 0.367307 8.37565C2.35098 5.80422 4.702 3.67361 7.49384 2.05728C9.69792 0.808303 12.0489 0.00014019 14.6204 0.147079C16.3836 0.220548 18.0734 0.734834 19.6898 1.46953C22.9959 3.08585 25.7142 5.58381 27.9918 8.44912C28.1387 8.59606 28.2122 8.81647 28.2857 8.96341C28.2857 8.96341 28.2857 9.03687 28.2857 9.18381ZM2.13057 9.03688C2.64486 9.62463 3.15914 10.2124 3.7469 10.8001C5.58363 12.6369 7.56731 14.1797 9.9918 15.2818C11.1673 15.7961 12.4163 16.1634 13.7387 16.2369C15.7224 16.3103 17.5591 15.7961 19.3224 14.9144C21.3061 13.8859 22.9959 12.4899 24.5387 10.9471C25.1265 10.3593 25.6408 9.77157 26.2285 9.18381C26.1551 9.03687 26.0816 8.96341 26.0081 8.88994C25.1265 8.0083 24.3183 7.0532 23.3632 6.24504C21.6734 4.70218 19.7632 3.4532 17.5591 2.64504C15.3551 1.83687 13.151 1.83687 10.8734 2.64504C8.96323 3.30626 7.27343 4.4083 5.73057 5.65728C4.33465 6.53892 3.23261 7.71443 2.13057 9.03688Z" fill="#8FC53C"/>
<path d="M14.1052 3.45324C17.1909 3.45324 19.6888 6.02467 19.6888 9.03691C19.6888 12.1226 17.1909 14.6206 14.1052 14.6206C11.0194 14.6206 8.52148 12.0492 8.52148 9.03691C8.59495 5.87773 11.0929 3.37977 14.1052 3.45324ZM17.8521 9.03691C17.8521 6.97977 16.2358 5.36344 14.1786 5.28997C12.1215 5.28997 10.4317 6.97977 10.4317 9.03691C10.4317 11.0941 12.1215 12.7839 14.1786 12.7839C16.1623 12.7104 17.8521 11.0941 17.8521 9.03691Z" fill="#8FC53C"/>
</g>
<defs>
<clipPath id="clip0_164_1096">
<rect width="28.2857" height="18" fill="white"/>
</clipPath>
</defs>
</svg>
