<svg width="57" height="56" viewBox="0 0 57 56" fill="none" xmlns="http://www.w3.org/2000/svg">
<path d="M55.2344 52.7174C50.6505 48.2139 45.9861 43.63 41.4022 39.1265C41.2414 38.9657 41.161 38.8853 41.161 38.8049C42.2064 37.2769 43.3323 35.7489 44.2169 34.221C47.0316 29.3154 47.7554 24.0077 46.6295 18.4587C45.7449 14.0357 43.654 10.256 40.5176 7.03918C37.0596 3.50073 32.9582 1.00772 28.0526 0.364367C25.2379 -0.0377305 22.8253 -0.198569 19.0456 0.364367C14.14 1.16856 9.95822 3.58114 6.50018 7.1196C3.36382 10.256 1.35333 14.0357 0.468719 18.3783C0.30788 19.2629 0.147041 20.228 0.0666217 21.1126C-0.0942173 23.4447 0.0666217 25.214 0.227461 26.5811C0.709977 31.4063 3.04214 35.5077 6.41976 38.9657C10.9232 43.63 16.3918 46.0426 22.8253 46.2839C27.7309 46.4447 32.2344 45.2384 36.3358 42.665C37.0596 42.1825 37.7834 41.7 38.5071 41.137C38.668 41.2979 38.7484 41.3783 38.9092 41.5391C43.5736 46.123 48.1575 50.6265 52.8218 55.2104C53.7868 56.1755 54.9127 56.2559 55.6365 55.4517C56.3602 54.7279 56.1994 53.6825 55.2344 52.7174ZM34.0036 39.8503C27.5701 43.7104 20.7344 43.8713 14.0596 40.4133C8.59109 37.5986 5.13305 33.0147 3.92676 26.9028C2.72046 20.8713 4.16801 15.4028 8.10857 10.6581C11.3253 6.79792 15.5072 4.46576 20.5736 3.74198C25.5596 3.01821 30.3043 3.98324 34.5666 6.79792C39.3113 9.93428 42.2868 14.3574 43.2519 20.0671C43.4127 21.1126 43.4931 22.158 43.5736 23.0427C43.2519 30.4412 40.1959 36.151 34.0036 39.8503Z" fill="white" fill-opacity="0.75"/>
</svg>
